<svg version="1.1" viewBox="0.0 0.0 755.9055118110236 755.9055118110236" fill="none" stroke="none" stroke-linecap="square" stroke-miterlimit="10" xmlns:xlink="http://www.w3.org/1999/xlink" xmlns="http://www.w3.org/2000/svg"><clipPath id="p.0"><path d="m0 0l755.9055 0l0 755.9055l-755.9055 0l0 -755.9055z" clip-rule="nonzero"/></clipPath><g clip-path="url(#p.0)"><path fill="#000000" fill-opacity="0.0" d="m0 0l755.9055 0l0 755.9055l-755.9055 0z" fill-rule="evenodd"/><path fill="#000000" fill-opacity="0.0" d="m107.27559 491.71643l0 0c0 -133.018 109.84888 -240.8504 245.35432 -240.8504l0 0c65.07202 0 127.47885 25.375244 173.49173 70.54343c46.01288 45.168213 71.86261 106.429474 71.86261 170.30698l0 0c0 133.018 -109.84888 240.8504 -245.35434 240.8504l0 0c-135.50545 0 -245.35432 -107.8324 -245.35432 -240.8504z" fill-rule="evenodd"/><path stroke="#ffffff" stroke-width="24.0" stroke-linejoin="round" stroke-linecap="butt" d="m107.27559 491.71643l0 0c0 -133.018 109.84888 -240.8504 245.35432 -240.8504l0 0c65.07202 0 127.47885 25.375244 173.49173 70.54343c46.01288 45.168213 71.86261 106.429474 71.86261 170.30698l0 0c0 133.018 -109.84888 240.8504 -245.35434 240.8504l0 0c-135.50545 0 -245.35432 -107.8324 -245.35432 -240.8504z" fill-rule="evenodd"/><path fill="#000000" fill-opacity="0.0" d="m352.62466 58.6063l0.4409485 171.55905" fill-rule="evenodd"/><path stroke="#ffffff" stroke-width="16.0" stroke-linejoin="round" stroke-linecap="butt" d="m352.62466 58.6063l0.4409485 171.55905" fill-rule="evenodd"/><path fill="#ffffff" d="m331.46982 185.74806l42.299225 0l0 68.72441l-42.299225 0z" fill-rule="evenodd"/><path stroke="#ffffff" stroke-width="1.0" stroke-linejoin="round" stroke-linecap="butt" d="m331.46982 185.74806l42.299225 0l0 68.72441l-42.299225 0z" fill-rule="evenodd"/><path fill="#000000" fill-opacity="0.0" d="m195.6798 472.81104l0 0c0 -21.943542 18.458557 -39.7323 41.228348 -39.7323l0 0c10.934433 0 21.42102 4.1860657 29.152832 11.637329c7.7318115 7.451233 12.0755005 17.557312 12.0755005 28.09497l0 0c0 21.943512 -18.458557 39.7323 -41.228333 39.7323l0 0c-22.76979 0 -41.228348 -17.788788 -41.228348 -39.7323z" fill-rule="evenodd"/><path stroke="#ffffff" stroke-width="24.0" stroke-linejoin="round" stroke-linecap="butt" d="m195.6798 472.81104l0 0c0 -21.943542 18.458557 -39.7323 41.228348 -39.7323l0 0c10.934433 0 21.42102 4.1860657 29.152832 11.637329c7.7318115 7.451233 12.0755005 17.557312 12.0755005 28.09497l0 0c0 21.943512 -18.458557 39.7323 -41.228333 39.7323l0 0c-22.76979 0 -41.228348 -17.788788 -41.228348 -39.7323z" fill-rule="evenodd"/><path fill="#000000" fill-opacity="0.0" d="m399.41995 412.22046l0 0c0 -21.943512 18.458557 -39.73227 41.228333 -39.73227l0 0c10.934448 0 21.421051 4.1860657 29.152863 11.637329c7.7318115 7.451233 12.0755005 17.557312 12.0755005 28.09494l0 0c0 21.943542 -18.458557 39.7323 -41.228363 39.7323l0 0c-22.769775 0 -41.228333 -17.788757 -41.228333 -39.7323z" fill-rule="evenodd"/><path stroke="#ffffff" stroke-width="24.0" stroke-linejoin="round" stroke-linecap="butt" d="m399.41995 412.22046l0 0c0 -21.943512 18.458557 -39.73227 41.228333 -39.73227l0 0c10.934448 0 21.421051 4.1860657 29.152863 11.637329c7.7318115 7.451233 12.0755005 17.557312 12.0755005 28.09494l0 0c0 21.943542 -18.458557 39.7323 -41.228363 39.7323l0 0c-22.769775 0 -41.228333 -17.788757 -41.228333 -39.7323z" fill-rule="evenodd"/><path fill="#000000" fill-opacity="0.0" d="m529.55115 217.98424l0 0c0 -27.483765 21.955688 -49.76378 49.039368 -49.76378l0 0c13.0060425 0 25.479431 5.2429657 34.676086 14.57547c9.196655 9.33252 14.363281 21.990143 14.363281 35.18831l0 0c0 27.48378 -21.955688 49.76378 -49.039368 49.76378l0 0c-27.08368 0 -49.039368 -22.279999 -49.039368 -49.76378z" fill-rule="evenodd"/><path stroke="#ffffff" stroke-width="24.0" stroke-linejoin="round" stroke-linecap="butt" d="m529.55115 217.98424l0 0c0 -27.483765 21.955688 -49.76378 49.039368 -49.76378l0 0c13.0060425 0 25.479431 5.2429657 34.676086 14.57547c9.196655 9.33252 14.363281 21.990143 14.363281 35.18831l0 0c0 27.48378 -21.955688 49.76378 -49.039368 49.76378l0 0c-27.08368 0 -49.039368 -22.279999 -49.039368 -49.76378z" fill-rule="evenodd"/><path fill="#000000" fill-opacity="0.0" d="m627.6299 217.98424l-0.09448242 -159.37007" fill-rule="evenodd"/><path stroke="#ffffff" stroke-width="24.0" stroke-linejoin="round" stroke-linecap="butt" d="m627.6299 217.98424l-0.09448242 -159.37007" fill-rule="evenodd"/><path fill="#000000" fill-opacity="0.0" d="m627.6462 58.60729l75.590515 0l0 63.464565l-75.590515 0z" fill-rule="evenodd"/><path stroke="#ffffff" stroke-width="24.0" stroke-linejoin="round" stroke-linecap="butt" d="m627.6462 58.60729l75.590515 0l0 63.464565l-75.590515 0z" fill-rule="evenodd"/></g></svg>